<svg width="435" height="100" viewBox="0 0 435 100" fill="none" xmlns="http://www.w3.org/2000/svg">
<path d="M81.6491 83.8933C88.2551 83.8933 93.6103 78.5113 93.6103 71.8721C93.6103 65.233 88.2551 59.8509 81.6491 59.8509C75.0431 59.8509 69.6879 65.233 69.6879 71.8721C69.6879 78.5113 75.0431 83.8933 81.6491 83.8933Z" fill="url(#paint0_linear_38_5710)"/>
<path d="M47.1225 23.9618C53.7064 23.9618 59.0436 18.5978 59.0436 11.9809C59.0436 5.36404 53.7064 0 47.1225 0C40.5387 0 35.2014 5.36404 35.2014 11.9809C35.2014 18.5978 40.5387 23.9618 47.1225 23.9618Z" fill="url(#paint1_linear_38_5710)"/>
<path d="M15.2841 43.8986C24.6912 41.0495 34.8138 45.0678 39.7414 53.6083C39.9954 54.0451 40.3097 54.6431 40.4835 54.9791L40.7376 55.4696C42.6564 58.8361 46.9221 60.0053 50.2718 58.0768C51.609 57.3108 52.652 56.1214 53.247 54.6902C57.7133 45.3097 68.2704 40.5388 78.2191 43.4081C84.5641 45.1753 91.1297 41.446 92.8948 35.0692C94.6532 28.6923 90.9425 22.0937 84.5975 20.3198C78.5467 18.6332 72.2285 21.9526 70.1558 27.9129C65.7698 40.9151 51.7226 47.8833 38.7786 43.4686C33.0955 41.5266 28.3017 37.5823 25.2997 32.3545C24.6311 31.192 24.0561 29.969 23.5814 28.7125C21.6023 22.4028 14.903 18.902 8.62485 20.891C2.34672 22.8799 -1.13667 29.6129 0.842378 35.9225C2.76125 42.0306 9.11961 45.5449 15.2774 43.8919L15.2841 43.8986Z" fill="url(#paint2_linear_38_5710)"/>
<path d="M46.6013 100C50.8994 100 54.3838 96.4982 54.3838 92.1785C54.3838 87.8588 50.8994 84.357 46.6013 84.357C42.3032 84.357 38.8188 87.8588 38.8188 92.1785C38.8188 96.4982 42.3032 100 46.6013 100Z" fill="url(#paint3_linear_38_5710)"/>
<path d="M11.9612 84.4646C18.5672 84.4646 23.9224 79.0825 23.9224 72.4433C23.9224 65.8042 18.5672 60.4221 11.9612 60.4221C5.35521 60.4221 0 65.8042 0 72.4433C0 79.0825 5.35521 84.4646 11.9612 84.4646Z" fill="url(#paint4_linear_38_5710)"/>
<path d="M153.287 22.9332H160.869V77.0791H153.287V52.7343H125.065V77.0791H117.483V22.9332H125.065V45.1882H153.287V22.9332Z" fill="#22262A"/>
<path d="M187.078 32.2667C189.652 32.2667 192.092 32.5623 194.399 33.1604C196.706 33.7584 198.718 34.6655 200.443 35.8885C202.168 37.1114 203.539 38.6368 204.568 40.4779C205.591 42.3191 206.106 44.5096 206.106 47.0496V62.2828C206.106 64.9706 205.645 67.2754 204.729 69.1905C203.813 71.1055 202.509 72.6981 200.824 73.968C199.133 75.238 197.113 76.1721 194.753 76.7701C192.393 77.3681 189.799 77.6638 186.971 77.6638C184.29 77.6638 181.783 77.3883 179.449 76.844C177.116 76.2997 175.083 75.4396 173.345 74.2772C171.606 73.108 170.243 71.6364 169.246 69.849C168.257 68.0616 167.755 65.9248 167.755 63.4453C167.755 61.5571 168.116 59.8705 168.832 58.3787C169.547 56.887 170.543 55.6237 171.807 54.5822C173.071 53.5407 174.595 52.7343 176.374 52.1632C178.159 51.592 180.138 51.3098 182.317 51.3098H198.518V47.1034C198.518 45.9006 198.223 44.8456 197.628 43.9452C197.033 43.0448 196.218 42.2922 195.175 41.6874C194.132 41.0894 192.921 40.6258 191.531 40.2965C190.14 39.974 188.656 39.806 187.071 39.806C182.117 39.806 178.547 41.3985 176.374 44.5836L169.835 40.6997C171.566 37.8103 173.893 35.6869 176.822 34.3161C179.743 32.9453 183.16 32.2599 187.078 32.2599V32.2667ZM198.524 62.2895V58.8558H182.378C180.947 58.8558 179.783 59.0305 178.894 59.38C178.005 59.7294 177.29 60.1393 176.748 60.6096C176.206 61.0867 175.832 61.584 175.638 62.1014C175.444 62.6255 175.344 63.0623 175.344 63.4117C175.344 64.6077 175.652 65.6291 176.267 66.4758C176.882 67.3224 177.724 68.0213 178.787 68.5656C179.85 69.1166 181.087 69.513 182.491 69.7616C183.895 70.0102 185.393 70.1379 186.971 70.1379C189.685 70.1379 191.811 69.8288 193.343 69.2039C194.874 68.579 196.024 67.8466 196.786 66.9999C197.548 66.1532 198.036 65.2931 198.23 64.4263C198.424 63.5528 198.524 62.8472 198.524 62.2962V62.2895Z" fill="#22262A"/>
<path d="M251.269 47.204V77.8988C251.269 80.4388 250.788 82.6025 249.819 84.3966C248.849 86.1907 247.512 87.669 245.8 88.8382C244.089 90.0074 242.049 90.8675 239.696 91.4118C237.336 91.9561 234.795 92.2315 232.067 92.2315C230.282 92.2315 228.53 92.1173 226.819 91.8956C225.107 91.6738 223.456 91.2639 221.871 90.6659C220.28 90.0679 218.796 89.2615 217.405 88.2402C216.014 87.2188 214.724 85.9152 213.534 84.3159L219.478 79.9079C220.073 80.7546 220.855 81.4736 221.818 82.0716C222.781 82.6697 223.824 83.1535 224.94 83.5298C226.057 83.9061 227.22 84.1883 228.43 84.3899C229.64 84.5847 230.844 84.6855 232.034 84.6855C233.665 84.6855 235.19 84.5579 236.6 84.3092C238.011 84.0606 239.248 83.6642 240.318 83.1132C241.381 82.5622 242.21 81.8566 242.805 80.9831C243.4 80.1095 243.694 79.0814 243.694 77.8854V74.8213C242.257 75.5201 240.512 76.1652 238.452 76.7632C236.393 77.3612 234.254 77.6569 232.027 77.6569C229.5 77.6569 227.086 77.3478 224.78 76.7229C222.473 76.098 220.454 75.1707 218.722 73.9208C216.99 72.6777 215.6 71.1054 214.563 69.2172C213.52 67.329 213.006 65.1115 213.006 62.5716V47.1838C213.006 44.6976 213.5 42.5138 214.497 40.6525C215.486 38.7844 216.843 37.2188 218.555 35.9488C220.267 34.6788 222.279 33.7313 224.586 33.1132C226.892 32.4882 229.386 32.1791 232.067 32.1791C234.748 32.1791 237.095 32.4748 239.402 33.0728C241.708 33.6709 243.741 34.5914 245.506 35.8346C247.271 37.0777 248.669 38.6366 249.712 40.5046C250.755 42.3727 251.276 44.6035 251.276 47.1906L251.269 47.204ZM243.688 47.204C243.688 45.9071 243.353 44.7917 242.685 43.8442C242.016 42.8968 241.133 42.124 240.044 41.526C238.954 40.928 237.717 40.4777 236.326 40.1821C234.942 39.8864 233.505 39.7319 232.014 39.7319C230.523 39.7319 229.005 39.8932 227.594 40.2157C226.184 40.5382 224.94 41.0287 223.877 41.6738C222.814 42.3189 221.972 43.1051 221.35 44.0257C220.728 44.9462 220.42 46.0079 220.42 47.1973V62.585C220.42 63.7811 220.728 64.8495 221.35 65.7969C221.972 66.7444 222.801 67.5373 223.837 68.1891C224.88 68.8342 226.103 69.3247 227.514 69.6472C228.925 69.9698 230.423 70.131 232.007 70.131C233.592 70.131 235.163 69.9698 236.574 69.6472C237.984 69.3247 239.215 68.8409 240.251 68.1891C241.294 67.544 242.123 66.7444 242.738 65.7969C243.36 64.8495 243.667 63.7811 243.667 62.585V47.1973L243.688 47.204Z" fill="#22262A"/>
<path d="M288.631 65.6492L295.391 69.6809C293.605 72.2209 291.078 74.1897 287.809 75.5806C284.539 76.9783 281.022 77.6704 277.258 77.6704C274.731 77.6704 272.317 77.3613 270.011 76.7364C267.704 76.1115 265.678 75.1842 263.92 73.9343C262.161 72.6912 260.764 71.1121 259.721 69.1904C258.678 67.2753 258.163 65.0175 258.163 62.4305V47.2712C258.163 44.8321 258.658 42.6751 259.654 40.8138C260.644 38.9458 262.001 37.3801 263.712 36.1101C265.424 34.8401 267.45 33.8792 269.777 33.2342C272.11 32.5891 274.617 32.2665 277.298 32.2665C279.979 32.2665 282.413 32.5622 284.74 33.1602C287.073 33.7583 289.106 34.6654 290.844 35.8884C292.582 37.1113 293.96 38.6635 294.976 40.5584C295.992 42.4534 296.5 44.691 296.5 47.278V58.7012H265.738V62.5851C265.738 63.7811 266.046 64.8495 266.668 65.797C267.289 66.7444 268.118 67.5373 269.155 68.1891C270.198 68.8342 271.408 69.3247 272.799 69.6473C274.183 69.9698 275.674 70.1311 277.258 70.1311C279.485 70.1311 281.617 69.7548 283.65 69.0089C285.683 68.2631 287.341 67.1409 288.631 65.6492ZM265.745 47.278V51.1619H288.932V47.278C288.932 46.0349 288.624 44.9396 288.003 43.9921C287.381 43.0447 286.538 42.2652 285.475 41.6403C284.412 41.0154 283.169 40.5584 281.758 40.2561C280.347 39.9604 278.849 39.8059 277.265 39.8059C275.68 39.8059 274.183 39.9671 272.772 40.2897C271.361 40.6122 270.131 41.1027 269.095 41.7478C268.052 42.3929 267.236 43.1791 266.641 44.0996C266.046 45.0202 265.752 46.0752 265.752 47.2712L265.745 47.278Z" fill="#22262A"/>
<path d="M186.931 30.1231C188.906 30.1231 190.508 28.5136 190.508 26.5281C190.508 24.5427 188.906 22.9332 186.931 22.9332C184.955 22.9332 183.354 24.5427 183.354 26.5281C183.354 28.5136 184.955 30.1231 186.931 30.1231Z" fill="#22262A"/>
<path d="M310.013 22.1806H317.688V69.3584H343.342V76.9918H310.019V22.1806H310.013Z" fill="#22262A"/>
<path d="M370.046 31.6348C372.653 31.6348 375.12 31.9372 377.454 32.542C379.787 33.1467 381.827 34.0673 383.572 35.3037C385.317 36.5401 386.707 38.0923 387.744 39.9536C388.78 41.8216 389.301 44.0391 389.301 46.6059V62.0273C389.301 64.7487 388.833 67.0803 387.904 69.0223C386.975 70.9642 385.658 72.5769 383.946 73.8603C382.234 75.1438 380.188 76.0912 377.802 76.696C375.415 77.3007 372.787 77.6031 369.925 77.6031C367.211 77.6031 364.67 77.3276 362.31 76.7766C359.95 76.2256 357.891 75.3588 356.132 74.1761C354.374 72.9935 352.99 71.5018 351.987 69.6875C350.984 67.88 350.483 65.7163 350.483 63.2032C350.483 61.2948 350.844 59.5813 351.572 58.0762C352.301 56.571 353.304 55.2876 354.581 54.2326C355.858 53.1776 357.403 52.3646 359.208 51.78C361.013 51.2021 363.019 50.9131 365.225 50.9131H381.626V46.653C381.626 45.4367 381.325 44.3683 380.723 43.4545C380.122 42.5406 379.293 41.7813 378.243 41.1698C377.186 40.5584 375.963 40.0947 374.559 39.7655C373.155 39.4362 371.65 39.2682 370.046 39.2682C365.031 39.2682 361.421 40.8809 359.215 44.1063L352.595 40.1753C354.347 37.2524 356.707 35.0954 359.669 33.7112C362.624 32.3269 366.088 31.6348 370.053 31.6348H370.046ZM381.626 62.0273V58.5465H365.279C363.828 58.5465 362.651 58.7212 361.755 59.0774C360.853 59.4335 360.131 59.8434 359.582 60.3272C359.034 60.8043 358.66 61.3083 358.459 61.8391C358.258 62.3699 358.158 62.8134 358.158 63.1629C358.158 64.3724 358.472 65.4072 359.094 66.2606C359.716 67.1207 360.572 67.8262 361.642 68.3772C362.718 68.9349 363.968 69.3381 365.392 69.5867C366.817 69.8421 368.328 69.963 369.932 69.963C372.68 69.963 374.833 69.6472 376.377 69.0156C377.929 68.3839 379.092 67.6448 379.868 66.7847C380.643 65.9313 381.131 65.0578 381.332 64.1775C381.532 63.2972 381.633 62.5782 381.633 62.0205L381.626 62.0273Z" fill="#22262A"/>
<path d="M403.931 22.1065V34.504C404.934 33.7985 406.297 33.14 408.029 32.5352C409.761 31.9305 412.281 31.6281 415.591 31.6281C418.245 31.6281 420.753 31.917 423.113 32.4949C425.473 33.0728 427.525 33.9799 429.284 35.2163C431.036 36.4527 432.433 38.0251 433.456 39.9401C434.486 41.8552 435 44.1466 435 46.8209V62.2422C435 64.7621 434.512 66.9795 433.536 68.8946C432.56 70.8096 431.203 72.4089 429.471 73.6923C427.739 74.9757 425.687 75.9635 423.3 76.6422C420.92 77.3209 418.346 77.6636 415.591 77.6636C412.836 77.6636 410.108 77.3209 407.728 76.6422C405.348 75.9635 403.316 74.969 401.637 73.6587C399.959 72.3484 398.642 70.7492 397.686 68.861C396.73 66.9728 396.255 64.8158 396.255 62.3968V22.0998H403.931V22.1065ZM403.931 46.8276V62.4035C403.931 63.613 404.245 64.6949 404.873 65.6558C405.502 66.6166 406.338 67.423 407.394 68.0748C408.45 68.7333 409.674 69.2238 411.078 69.5464C412.482 69.8756 413.986 70.0369 415.591 70.0369C417.196 70.0369 418.787 69.8622 420.218 69.506C421.648 69.1566 422.885 68.6392 423.942 67.9538C424.991 67.2752 425.82 66.4554 426.422 65.4945C427.024 64.5403 427.325 63.4518 427.325 62.2422V46.8209C427.325 45.5106 426.997 44.375 426.349 43.4208C425.693 42.4667 424.831 41.6805 423.755 41.0757C422.678 40.471 421.434 40.0208 420.03 39.7117C418.626 39.4093 417.149 39.2547 415.591 39.2547C414.033 39.2547 412.469 39.416 411.038 39.7453C409.607 40.0745 408.37 40.5651 407.314 41.2168C406.257 41.8754 405.435 42.6683 404.833 43.5956C404.231 44.5296 403.931 45.598 403.931 46.8075V46.8276Z" fill="#22262A"/>
<defs>
<linearGradient id="paint0_linear_38_5710" x1="93.6732" y1="-44.9405" x2="-9.40611" y2="-39.9348" gradientUnits="userSpaceOnUse">
<stop stop-color="#0051F0"/>
<stop offset="1" stop-color="#00BDFF"/>
</linearGradient>
<linearGradient id="paint1_linear_38_5710" x1="93.6732" y1="-44.9405" x2="-9.40611" y2="-39.9348" gradientUnits="userSpaceOnUse">
<stop stop-color="#0051F0"/>
<stop offset="1" stop-color="#00BDFF"/>
</linearGradient>
<linearGradient id="paint2_linear_38_5710" x1="93.6732" y1="-44.9405" x2="-9.40611" y2="-39.9348" gradientUnits="userSpaceOnUse">
<stop stop-color="#0051F0"/>
<stop offset="1" stop-color="#00BDFF"/>
</linearGradient>
<linearGradient id="paint3_linear_38_5710" x1="93.6732" y1="-44.9405" x2="-9.40611" y2="-39.9348" gradientUnits="userSpaceOnUse">
<stop stop-color="#0051F0"/>
<stop offset="1" stop-color="#00BDFF"/>
</linearGradient>
<linearGradient id="paint4_linear_38_5710" x1="93.6732" y1="-44.9405" x2="-9.40611" y2="-39.9348" gradientUnits="userSpaceOnUse">
<stop stop-color="#0051F0"/>
<stop offset="1" stop-color="#00BDFF"/>
</linearGradient>
</defs>
</svg>
