<svg width="512" height="512" viewBox="0 0 512 512" fill="none" xmlns="http://www.w3.org/2000/svg">
<path d="M388.511 384.795C413.634 384.795 434 364.343 434 339.114C434 313.885 413.634 293.433 388.511 293.433C363.389 293.433 343.023 313.885 343.023 339.114C343.023 364.343 363.389 384.795 388.511 384.795Z" fill="url(#paint0_linear_345_138)"/>
<path d="M257.207 157.055C282.245 157.055 302.543 136.672 302.543 111.527C302.543 86.3833 282.245 66 257.207 66C232.168 66 211.871 86.3833 211.871 111.527C211.871 136.672 232.168 157.055 257.207 157.055Z" fill="url(#paint1_linear_345_138)"/>
<path d="M136.125 232.815C171.901 221.988 210.397 237.258 229.136 269.712C230.102 271.371 231.298 273.644 231.959 274.921L232.925 276.785C240.222 289.577 256.445 294.02 269.183 286.692C274.269 283.781 278.235 279.261 280.498 273.823C297.483 238.177 337.632 220.048 375.467 230.951C399.597 237.666 424.566 223.495 431.279 199.263C437.966 175.031 423.854 149.956 399.724 143.215C376.713 136.806 352.685 149.42 344.802 172.069C328.122 221.478 274.701 247.956 225.475 231.18C203.862 223.801 185.631 208.813 174.215 188.947C171.672 184.53 169.485 179.882 167.68 175.107C160.154 151.131 134.676 137.827 110.8 145.386C86.9246 152.944 73.6773 178.529 81.2036 202.506C88.501 225.716 112.682 239.071 136.1 232.789L136.125 232.815Z" fill="url(#paint2_linear_345_138)"/>
<path d="M255.225 446C271.57 446 284.821 432.693 284.821 416.278C284.821 399.863 271.57 386.556 255.225 386.556C238.879 386.556 225.628 399.863 225.628 416.278C225.628 432.693 238.879 446 255.225 446Z" fill="url(#paint3_linear_345_138)"/>
<path d="M123.488 386.965C148.611 386.965 168.977 366.513 168.977 341.285C168.977 316.056 148.611 295.604 123.488 295.604C98.3659 295.604 78 316.056 78 341.285C78 366.513 98.3659 386.965 123.488 386.965Z" fill="url(#paint4_linear_345_138)"/>
<defs>
<linearGradient id="paint0_linear_345_138" x1="256" y1="-304.5" x2="-55.8886" y2="-137.908" gradientUnits="userSpaceOnUse">
<stop stop-color="#0051F0"/>
<stop offset="1" stop-color="#00BDFF"/>
</linearGradient>
<linearGradient id="paint1_linear_345_138" x1="256" y1="-304.5" x2="-55.8886" y2="-137.908" gradientUnits="userSpaceOnUse">
<stop stop-color="#0051F0"/>
<stop offset="1" stop-color="#00BDFF"/>
</linearGradient>
<linearGradient id="paint2_linear_345_138" x1="256" y1="-304.5" x2="-55.8886" y2="-137.908" gradientUnits="userSpaceOnUse">
<stop stop-color="#0051F0"/>
<stop offset="1" stop-color="#00BDFF"/>
</linearGradient>
<linearGradient id="paint3_linear_345_138" x1="256" y1="-304.5" x2="-55.8886" y2="-137.908" gradientUnits="userSpaceOnUse">
<stop stop-color="#0051F0"/>
<stop offset="1" stop-color="#00BDFF"/>
</linearGradient>
<linearGradient id="paint4_linear_345_138" x1="256" y1="-304.5" x2="-55.8886" y2="-137.908" gradientUnits="userSpaceOnUse">
<stop stop-color="#0051F0"/>
<stop offset="1" stop-color="#00BDFF"/>
</linearGradient>
</defs>
</svg>
